<svg xmlns="http://www.w3.org/2000/svg" viewBox="0 0 63.46 40.19"><defs><style>.cls-1{fill:#6c68ac;}</style></defs><g id="Layer_2" data-name="Layer 2"><g id="home"><path class="cls-1" d="M25.61,18s6-.45,6-7.49S26.7,0,20.48,0H0V39.36H20.48S33,39.75,33,27.74C33,27.74,33.53,18,25.61,18ZM9,7H20.48s2.78,0,2.78,4.09-1.63,4.69-3.49,4.69H9ZM20,32.36H9V21.84H20.48s4.15-.05,4.15,5.41C24.63,31.8,21.59,32.32,20,32.36Z"/><rect class="cls-1" x="41.19" y="2.32" width="16.24" height="4.85"/><path class="cls-1" d="M49.65,10C34.52,10,34.53,25.13,34.53,25.13s-1,15.05,15.12,15.05c0,0,13.47.77,13.47-10.47H56.2S56.43,34,49.89,34c0,0-6.93.46-6.93-6.85H63.35S65.58,10,49.65,10Zm6.16,11.83H42.88s.85-6.06,6.93-6.06S55.81,21.84,55.81,21.84Z"/></g></g></svg>