<svg xmlns="http://www.w3.org/2000/svg" viewBox="0 0 10.62 10.62"><defs><style>.cls-1{fill:#816eb0;}.cls-2{fill:#f1f2f2;}</style></defs><g id="Layer_2" data-name="Layer 2"><g id="Layer_1-2" data-name="Layer 1"><circle class="cls-1" cx="5.31" cy="5.31" r="5.31"/><path class="cls-2" d="M8.55,3.15H3.69V2.61H5.31a.55.55,0,0,0,.54-.55V1.52A.54.54,0,0,0,5.31,1H3.15a.54.54,0,0,0-.54.54V3.15H2.06A1.08,1.08,0,0,0,1,4.23V6.39A1.08,1.08,0,0,0,2.06,7.47H4.77V9.09a.54.54,0,0,0,.54.54H6.39a.54.54,0,0,0,.54-.54V7.47H8.55A1.08,1.08,0,0,0,9.63,6.39V4.23A1.08,1.08,0,0,0,8.55,3.15ZM5.85,8.82a.27.27,0,0,1-.54,0V7.47h.54ZM9.09,6.39a.54.54,0,0,1-.54.54H2.06a.54.54,0,0,1-.54-.54V4.23a.54.54,0,0,1,.54-.54h.55V4.77a.54.54,0,0,0,.54.54.54.54,0,0,0,.54-.54V3.69H8.55a.54.54,0,0,1,.54.54Z"/></g></g></svg>