<svg xmlns="http://www.w3.org/2000/svg" viewBox="0 0 44.54 43.44"><defs><style>.cls-1{fill:#6c68ac;}</style></defs><g id="Layer_2" data-name="Layer 2"><g id="home"><path class="cls-1" d="M22.27,0a22.27,22.27,0,0,0-7,43.4c1.11.21,1.47-.48,1.47-1.07V38.19c-6.19,1.34-7.48-2.63-7.48-2.63A5.9,5.9,0,0,0,6.74,32.3c-2-1.38.16-1.35.16-1.35a4.67,4.67,0,0,1,3.41,2.29c2,3.41,5.21,2.42,6.48,1.85a4.69,4.69,0,0,1,1.42-3c-5-.57-10.15-2.48-10.15-11a8.65,8.65,0,0,1,2.29-6,8,8,0,0,1,.22-5.89s1.87-.6,6.13,2.28a21.1,21.1,0,0,1,11.15,0C32.1,8.64,34,9.24,34,9.24a8,8,0,0,1,.22,5.89,8.6,8.6,0,0,1,2.29,6c0,8.55-5.21,10.44-10.17,11a5.3,5.3,0,0,1,1.53,4.12v6.11c0,.59.35,1.29,1.48,1.07a22.27,22.27,0,0,0-7-43.4Z"/></g></g></svg>