<svg xmlns="http://www.w3.org/2000/svg" viewBox="0 0 41.53 41.53"><defs><style>.cls-1{fill:#6c68ac;}</style></defs><g id="Layer_2" data-name="Layer 2"><g id="home"><path class="cls-1" d="M37.78,0h-34A3.76,3.76,0,0,0,0,3.76v34a3.75,3.75,0,0,0,3.76,3.75h34a3.75,3.75,0,0,0,3.75-3.75v-34A3.75,3.75,0,0,0,37.78,0ZM12.85,35.86A1.09,1.09,0,0,1,11.76,37H7.1A1.09,1.09,0,0,1,6,35.86V16.35A1.09,1.09,0,0,1,7.1,15.26h4.66a1.09,1.09,0,0,1,1.09,1.09ZM9.43,13.42A4.42,4.42,0,1,1,13.85,9,4.42,4.42,0,0,1,9.43,13.42ZM37.18,36a1,1,0,0,1-1,1h-5a1,1,0,0,1-1-1V26.8c0-1.36.4-6-3.57-6-3.08,0-3.7,3.16-3.82,4.58V36a1,1,0,0,1-1,1H16.94a1,1,0,0,1-1-1V16.27a1,1,0,0,1,1-1h4.83a1,1,0,0,1,1,1V18c1.14-1.72,2.83-3,6.44-3,8,0,8,7.47,8,11.58V36Z"/></g></g></svg>