<svg xmlns="http://www.w3.org/2000/svg" viewBox="0 0 10.62 10.62"><defs><style>.cls-1{fill:#816eb0;}.cls-2{fill:#f1f2f2;}</style></defs><g id="Layer_2" data-name="Layer 2"><g id="Layer_1-2" data-name="Layer 1"><circle class="cls-1" cx="5.31" cy="5.31" r="5.31"/><path class="cls-2" d="M8,6.91l0-.08a.79.79,0,0,0-.47-.44L6.78,6.2a.69.69,0,0,0-.6.16l-.26.26A2.75,2.75,0,0,1,4,4.7l.26-.26a.7.7,0,0,0,.16-.61l-.2-.71a.74.74,0,0,0-.44-.46l-.08,0a.65.65,0,0,0-.6.14l-.38.39a.68.68,0,0,0-.11.26A4.52,4.52,0,0,0,3.93,6.68,4.58,4.58,0,0,0,7.18,8a.68.68,0,0,0,.28-.11l.38-.39A.66.66,0,0,0,8,6.91Z"/></g></g></svg>