<svg xmlns="http://www.w3.org/2000/svg" xmlns:xlink="http://www.w3.org/1999/xlink" viewBox="0 0 141.37 147"><defs><style>.cls-1{fill:url(#linear-gradient);}.cls-2{fill:#595966;}.cls-3{fill:url(#linear-gradient-2);}.cls-4{fill:url(#linear-gradient-3);}.cls-5{fill:url(#linear-gradient-4);}.cls-6{fill:url(#linear-gradient-5);}.cls-7{fill:url(#linear-gradient-6);}</style><linearGradient id="linear-gradient" x1="133.68" y1="90.55" x2="-12.82" y2="110.51" gradientUnits="userSpaceOnUse"><stop offset="0"/><stop offset="0.14" stop-color="#050505"/><stop offset="0.31" stop-color="#131313"/><stop offset="0.48" stop-color="#2b2b2b"/><stop offset="0.67" stop-color="#4d4d4d"/><stop offset="0.87" stop-color="#787878"/><stop offset="1" stop-color="#999"/></linearGradient><linearGradient id="linear-gradient-2" x1="138.49" y1="-12.26" x2="9.33" y2="90.78" xlink:href="#linear-gradient"/><linearGradient id="linear-gradient-3" x1="127.18" y1="-36.97" x2="-10.73" y2="73.05" xlink:href="#linear-gradient"/><linearGradient id="linear-gradient-4" x1="179.64" y1="35.03" x2="39.32" y2="146.96" xlink:href="#linear-gradient"/><linearGradient id="linear-gradient-5" x1="205.27" y1="71.18" x2="68.47" y2="180.32" xlink:href="#linear-gradient"/><linearGradient id="linear-gradient-6" x1="144.77" y1="-5.68" x2="11.27" y2="100.82" xlink:href="#linear-gradient"/></defs><g id="Layer_2" data-name="Layer 2"><g id="Layer_1-2" data-name="Layer 1"><path class="cls-1" d="M110.78,98.06c0,4.18-17.36,7.56-38.77,7.56s-38.77-3.38-38.77-7.56c0-.07,12-4.17,21-5,5.4-.5,11.41-.77,17.74-.77,5.71,0,11.16.22,16.14.63h0C97.62,93.71,110.78,98,110.78,98.06Z"/><line class="cls-2" x1="130.14" y1="36.35" x2="130.14" y2="112.69"/><path class="cls-3" d="M111.86,47.65l-2.9,0L109,31.21c-.27-5.92-15.64-12.5-37.32-12.5a94.9,94.9,0,0,0-18,1.65l-.2,0-.62-3.07.31-.06a97.73,97.73,0,0,1,18.49-1.7c19.22,0,39.85,5.45,40.22,15.54v.07Z"/><path class="cls-4" d="M34.31,49l-2.9,0,.09-17.89c.08-2.24,1.32-5.57,6.74-8.71l.16-.09,1.39,2.75-.17.1c-3.28,1.9-5.13,4.05-5.22,6.05Z"/><rect class="cls-5" x="129.1" y="36.35" width="2.07" height="76.34"/><path class="cls-6" d="M138,147H122.2V119.64c0-4.7,3.53-8.52,7.88-8.52s7.88,3.82,7.88,8.52Zm-13.27-2.69h10.78V119.64a5.41,5.41,0,1,0-10.78,0Z"/><path class="cls-7" d="M72,107.75c-14,0-40.63-2-40.63-9.4A10.72,10.72,0,0,1,32,95.9L31.62,53,0,29.73,70.68,0l70.69,29.73L111.66,51.55l.18,44.29c.82,2.17.82,2.2.82,2.51C112.66,105.79,86.08,107.75,72,107.75Zm-38.13-9.3c.21.69,2.38,2.61,10.51,4.27A144.55,144.55,0,0,0,72,105.06a144.67,144.67,0,0,0,27.63-2.34c8-1.63,10.21-3.51,10.49-4.23-.14-.4-.43-1.17-.7-1.86l-.09-.25v-.27l-.19-46,26.89-19.75L70.68,2.89,5.32,30.38,34.1,51.51l.4,44.78-.06.2C34.23,97.24,34,98.07,33.89,98.45Z"/></g></g></svg>