<svg xmlns="http://www.w3.org/2000/svg" viewBox="0 0 422.01 293.56"><defs><style>.cls-1{fill:none;stroke:#000;stroke-miterlimit:10;stroke-width:5px;}</style></defs><g id="Layer_2" data-name="Layer 2"><g id="Layer_1-2" data-name="Layer 1"><path class="cls-1" d="M413.11,65.4,213.71,2.92a9.08,9.08,0,0,0-5.46,0L8.9,65.38a9.13,9.13,0,0,0-1,17l188.55,84.87a36.57,36.57,0,0,0,30.08,0L414.14,82.43A9.13,9.13,0,0,0,413.11,65.4Z"/><path class="cls-1" d="M194.86,167.32,111.48,129.9V230.74a31.37,31.37,0,0,0,8.61,21.66,125,125,0,0,0,183.28-2.7,31.57,31.57,0,0,0,8.11-21.12V129.45L227.1,167.32A39.31,39.31,0,0,1,194.86,167.32Z"/></g></g></svg>