<svg id="Layer_1" data-name="Layer 1" xmlns="http://www.w3.org/2000/svg" xmlns:xlink="http://www.w3.org/1999/xlink" viewBox="0 0 600 600"><defs><style>.cls-1{fill:url(#linear-gradient);}.cls-2{fill:url(#linear-gradient-2);}.cls-3{fill:none;stroke:#000;stroke-miterlimit:10;}.cls-4{fill:url(#linear-gradient-3);}.cls-5{fill:url(#linear-gradient-4);}</style><linearGradient id="linear-gradient" x1="261.4" y1="260.31" x2="142.71" y2="140.55" gradientTransform="translate(29.5 -26.83) rotate(5.59)" gradientUnits="userSpaceOnUse"><stop offset="0" stop-color="#8b8bbc"/><stop offset="0.18" stop-color="#9494c0"/><stop offset="0.49" stop-color="#aeaecc"/><stop offset="0.87" stop-color="#d7d7df"/><stop offset="1" stop-color="#e6e6e6"/></linearGradient><linearGradient id="linear-gradient-2" x1="261.4" y1="260.31" x2="142.71" y2="140.55" gradientUnits="userSpaceOnUse"><stop offset="0" stop-color="#8b8bbc"/><stop offset="0.17" stop-color="#8787b7"/><stop offset="0.37" stop-color="#7c7ca9"/><stop offset="0.59" stop-color="#696991"/><stop offset="0.82" stop-color="#4f4f6f"/><stop offset="1" stop-color="#36364f"/></linearGradient><linearGradient id="linear-gradient-3" x1="472.99" y1="332.79" x2="143.64" y2="303.92" gradientTransform="translate(521.82 -89.77) rotate(71.18)" xlink:href="#linear-gradient"/><linearGradient id="linear-gradient-4" x1="472.99" y1="332.79" x2="143.64" y2="303.92" gradientTransform="matrix(1, 0, 0, 1, 0, 0)" xlink:href="#linear-gradient"/></defs><rect class="cls-1" x="185.26" y="134.42" width="209" height="309" transform="translate(-26.75 29.57) rotate(-5.59)"/><path class="cls-2" d="M378.27,125.53l30,306.54-207,20.24-30-306.53,207-20.25m.9-1.09-209,20.44,30.17,308.53,209-20.44L379.17,124.44Z"/><path d="M373.78,131l29,296.58L205.73,446.85l-29-296.58L373.78,131m.9-1.1-199,19.47,29.2,298.57,199-19.46L374.68,129.9Z"/><path d="M290.05,159.28l14.44,20.19-10.26,22.61-24.7,2.41L255.08,184.3l10.26-22.6,24.71-2.42m.48-1.05-25.86,2.53-10.74,23.65,15.12,21.13L294.91,203l10.73-23.65-15.11-21.13Z"/><path d="M283.85,157.39,303,173.16,299,197.65l-23.24,8.73-19.18-15.77,4.06-24.49,23.24-8.73m.19-1.14-24.33,9.14L255.46,191l20.08,16.5,24.32-9.14,4.25-25.63L284,156.25Z"/><path d="M275.56,157.42l23.3,8.58,4.23,24.46L284,206.35l-23.3-8.57-4.22-24.47,19.07-15.89m-.19-1.14-20,16.63,4.43,25.6,24.38,9,20-16.63-4.42-25.6-24.38-9Z"/><line class="cls-3" x1="213.03" y1="282.65" x2="335.45" y2="270.68"/><line class="cls-3" x1="216.74" y1="315.44" x2="369.51" y2="300.5"/><line class="cls-3" x1="219.95" y1="348.29" x2="272.2" y2="343.18"/><line class="cls-3" x1="226.11" y1="411.2" x2="278.36" y2="406.09"/><line class="cls-3" x1="325.63" y1="401.47" x2="377.88" y2="396.36"/><path d="M283.41,230.27l-.1-1c.43,0,42.41-4.53,45.08-36.69l1,.08C326.64,225.67,283.84,230.23,283.41,230.27Z"/><path d="M324,208.53H324a.35.35,0,0,1-.36-.18c-.14-.28.09-.53,1.16-1.73.83-.93,2.08-2.33,3.68-4.35a3.88,3.88,0,0,1,1.82-1.2,7.68,7.68,0,0,0,3.48-2.58h0l.12-.14.18.07c.11,0,.28.11.13,1.65s-.79,5.06-3.63,5.65a14.17,14.17,0,0,0-4.67,2A5.17,5.17,0,0,1,324,208.53Zm9.7-9.25a8,8,0,0,1-3.28,2.26,3.49,3.49,0,0,0-1.61,1c-1.61,2-2.87,3.44-3.7,4.37-.36.41-.68.77-.88,1a6.77,6.77,0,0,0,1.36-.72,14.71,14.71,0,0,1,4.82-2C333.19,204.66,333.69,200.77,333.72,199.28Z"/><path d="M329.21,193.12a.84.84,0,0,1-.63-.15c-.31-.25-.23-.75-.2-.91.11-.68.3-1.82,4.89-5.31a3.77,3.77,0,0,1,2.53-.47,6.69,6.69,0,0,0,4.75-1.24l.13-.1.15.1c.16.1.12.27.09.4s-1.36,5.27-5.23,5.81a21.68,21.68,0,0,0-4.65,1.3A9.08,9.08,0,0,1,329.21,193.12Zm5.4-6.33a1.89,1.89,0,0,0-1,.36c-4.43,3.37-4.6,4.42-4.7,5,0,.28,0,.41,0,.45.19.16,1.09-.18,2-.5a22.15,22.15,0,0,1,4.76-1.34c2.76-.38,4.23-3.6,4.68-4.94a7.41,7.41,0,0,1-4.51,1A7.63,7.63,0,0,0,334.61,186.79Z"/><path d="M328.74,193.34l-.25,0c-.28,0-2.74-.41-3.12-2.18a9.16,9.16,0,0,0-.8-2.1c-.3-.61-.48-1-.3-1.26a.65.65,0,0,1,.57-.24c.38,0,1,0,3,2a1.72,1.72,0,0,1,.36,1.28,2.79,2.79,0,0,0,.74,2.09l.12.13-.08.16A.24.24,0,0,1,328.74,193.34Zm-4-5.29h-.07a5.57,5.57,0,0,0,.34.76,9.5,9.5,0,0,1,.84,2.22c.22,1.06,1.53,1.54,2.3,1.71a3.44,3.44,0,0,1-.48-1.92c0-.41,0-.74-.22-.94-1.83-1.84-2.37-1.84-2.62-1.85Z"/><path d="M323.91,208.54a.39.39,0,0,1-.32-.16,3.54,3.54,0,0,1-.51-1.77,10.82,10.82,0,0,0-1.31-4.19c-1-1.78.21-3.59,1.41-4.79,0,0,1.82-1.74,2.2-1.53l.17.09-.05.19a5.72,5.72,0,0,0,.1,3.71,3,3,0,0,1,.17,1.9c-.62,2.16-.95,3.76-1.18,4.81-.27,1.31-.35,1.66-.64,1.73Zm1-11.7a7.9,7.9,0,0,0-2.84,3.33,2.39,2.39,0,0,0,.15,2,11.15,11.15,0,0,1,1.37,4.37,6.07,6.07,0,0,0,.27,1.3c.08-.26.17-.68.26-1.14.23-1.06.57-2.67,1.19-4.85a2.56,2.56,0,0,0-.17-1.61A6,6,0,0,1,324.89,196.84Zm.13-.58Z"/><path d="M315.7,222.51a3.38,3.38,0,0,1-1-.07,11.16,11.16,0,0,0-5.46.37,4.18,4.18,0,0,1-2.23.24c-.11-.05-.31-.12-.27-.33s.25-.21.35-.21a15.23,15.23,0,0,0,6.12-2,15.49,15.49,0,0,0,1.78-1.1,32.69,32.69,0,0,1,4.37-2.53l.17-.08.13.14c.26.27-.39,2.23-1,3.31A3.91,3.91,0,0,1,315.7,222.51Zm-3.91-.72a9.29,9.29,0,0,1,3,.16,2.58,2.58,0,0,0,2.28-.53,7.49,7.49,0,0,0,2.08-3.85,30.58,30.58,0,0,0-3.9,2.29A17,17,0,0,1,313.4,221c-.52.26-1.11.54-1.72.81Z"/><path d="M324.61,216.36a3.36,3.36,0,0,1-1-.07,11.17,11.17,0,0,0-5.46.36,4,4,0,0,1-2.23.24c-.11,0-.31-.11-.27-.32a.3.3,0,0,1,.34-.22,15.17,15.17,0,0,0,6.13-2,18.13,18.13,0,0,0,1.78-1.1,31.61,31.61,0,0,1,4.37-2.53l.17-.08.13.14c.25.27-.39,2.22-1,3.3A3.9,3.9,0,0,1,324.61,216.36Zm-3.91-.73a9.31,9.31,0,0,1,3,.17,2.56,2.56,0,0,0,2.28-.54,7.45,7.45,0,0,0,2.08-3.85,32.36,32.36,0,0,0-3.9,2.29,18,18,0,0,1-1.83,1.13c-.52.27-1.11.55-1.72.82Z"/><path d="M307,222.8a.33.33,0,0,1-.36-.37,3.58,3.58,0,0,1,.67-1.72,10.57,10.57,0,0,0,1.51-4.11c.28-2,2.36-2.72,4-2.94,0,0,2.5-.28,2.67.12l.07.18-.15.12a5.72,5.72,0,0,0-2.18,3,3,3,0,0,1-1,1.61c-1.8,1.34-3,2.4-3.86,3.1S307.27,222.78,307,222.8Zm6.24-8.69a6.5,6.5,0,0,0-2.83.87,2.36,2.36,0,0,0-1.09,1.68,11.18,11.18,0,0,1-1.58,4.3,5.22,5.22,0,0,0-.57,1.2c.21-.16.54-.44.9-.75.83-.7,2.07-1.77,3.89-3.12a2.55,2.55,0,0,0,.85-1.38,5.92,5.92,0,0,1,1.88-2.84A12.8,12.8,0,0,0,313.27,214.11Z"/><path d="M294.53,227.9a.51.51,0,0,1-.17,0,.34.34,0,0,1-.19-.34c0-.56.5-.91,1.14-1.36a4.89,4.89,0,0,0,2.47-3.47,4,4,0,0,1,1.84-3.11,2.58,2.58,0,0,1,1.67-.42h0a1.16,1.16,0,0,1,.81,1c.16,1.19-1.28,2.88-2.31,3.65-1.8,1.34-3,2.4-3.86,3.1S294.78,227.87,294.53,227.9Zm6.45-8.25c-.56.06-2.34.44-2.7,3.12a4.63,4.63,0,0,1-1,2.3c.61-.5,1.33-1.06,2.17-1.68s2.24-2.28,2.12-3.19a.7.7,0,0,0-.47-.56Z"/><path d="M316.05,217.2h0a.35.35,0,0,1-.33-.21c-.27-.49,0-1,.39-1.74a4.86,4.86,0,0,0,.62-4.21,4,4,0,0,1,.21-3.62,2.71,2.71,0,0,1,1.3-1.13h0a1.2,1.2,0,0,1,1.17.5c.68,1,.16,3.15-.4,4.3-1,2-1.61,3.53-2,4.52C316.48,216.82,316.34,217.17,316.05,217.2Zm2.26-10.41c-.18.08-2.14,1.18-1.12,4.08a4.64,4.64,0,0,1,.2,2.48c.32-.71.7-1.54,1.16-2.48s.95-3.05.43-3.8A.65.65,0,0,0,318.31,206.79Z"/><path d="M283.63,230.25l-.1-1c-.41,0-41.11,3.63-49.78-27.42l-.93.27C241.72,234,283.21,230.29,283.63,230.25Z"/><path d="M240.94,216.65H241a.33.33,0,0,0,.31-.24c.07-.3-.19-.5-1.43-1.48-1-.75-2.42-1.89-4.33-3.56a3.64,3.64,0,0,0-2-.83,7.51,7.51,0,0,1-3.8-1.87h0l-.14-.12-.15.1c-.1.07-.25.17.18,1.64s1.72,4.82,4.53,4.86a13.26,13.26,0,0,1,4.8,1A4.83,4.83,0,0,0,240.94,216.65Zm-11-7.23a7.63,7.63,0,0,0,3.54,1.6,3.24,3.24,0,0,1,1.73.72c1.91,1.68,3.38,2.82,4.35,3.58.41.33.79.62,1,.82a6.58,6.58,0,0,1-1.42-.43,13.76,13.76,0,0,0-5-1.07C231.5,214.6,230.29,210.88,230,209.42Z"/><path d="M233.08,202.52a.85.85,0,0,0,.57-.26,1,1,0,0,0,0-.94c-.23-.64-.63-1.73-5.65-4.27a3.55,3.55,0,0,0-2.49,0,6.34,6.34,0,0,1-4.74-.3l-.15-.08-.13.13c-.12.13-.05.29,0,.41s2.29,4.91,6.07,4.7a20.72,20.72,0,0,1,4.66.39A8.36,8.36,0,0,0,233.08,202.52Zm-6.34-5.18a1.81,1.81,0,0,1,1.06.16c4.85,2.46,5.21,3.46,5.41,4,.1.26.09.4.06.44-.15.19-1.07,0-2-.12a21,21,0,0,0-4.77-.4c-2.69.15-4.7-2.73-5.38-4a6.92,6.92,0,0,0,4.47.09A8.89,8.89,0,0,1,226.74,197.34Z"/><path d="M233.56,202.65a1.53,1.53,0,0,0,.24-.07c.25-.09,2.52-.92,2.55-2.73a9.48,9.48,0,0,1,.35-2.22c.17-.65.27-1,.05-1.29a.61.61,0,0,0-.59-.12c-.35.07-.95.2-2.44,2.52a1.78,1.78,0,0,0-.1,1.33,2.79,2.79,0,0,1-.3,2.19l-.09.15.11.14A.25.25,0,0,0,233.56,202.65Zm2.78-6h.07a6.19,6.19,0,0,1-.17.81,9.58,9.58,0,0,0-.38,2.34c0,1.09-1.16,1.8-1.85,2.12a3.59,3.59,0,0,0,.09-2,1.4,1.4,0,0,1,0-1c1.39-2.15,1.9-2.26,2.14-2.31Z"/><path d="M241.05,216.64a.34.34,0,0,0,.27-.21,3.74,3.74,0,0,0,.15-1.84,11.13,11.13,0,0,1,.44-4.36c.62-1.94-.88-3.48-2.25-4.43,0,0-2.06-1.37-2.38-1.09l-.14.13.08.17a5.87,5.87,0,0,1,.61,3.66,3,3,0,0,0,.21,1.9c1,2,1.61,3.51,2,4.5.51,1.23.65,1.56.94,1.57Zm-3.16-11.29a7.82,7.82,0,0,1,3.33,2.73,2.43,2.43,0,0,1,.23,2,11.42,11.42,0,0,0-.46,4.55,5.76,5.76,0,0,1,0,1.33c-.12-.25-.29-.64-.47-1.08-.41-1-1-2.51-2-4.53a2.61,2.61,0,0,1-.16-1.61A6.05,6.05,0,0,0,237.89,205.35Zm-.23-.55Z"/><path d="M251.5,228.79a2.88,2.88,0,0,0,1-.27,10.49,10.49,0,0,1,5.25-.68,3.86,3.86,0,0,0,2.17-.19c.1-.06.27-.17.19-.37s-.27-.16-.36-.15a14.16,14.16,0,0,1-6.19-.76,14.64,14.64,0,0,1-1.9-.74A29.91,29.91,0,0,0,247,224l-.17-.05-.1.16c-.19.31.8,2.12,1.59,3.05A3.77,3.77,0,0,0,251.5,228.79Zm3.57-1.46a8.85,8.85,0,0,0-2.79.74A2.44,2.44,0,0,1,250,228a7.55,7.55,0,0,1-2.71-3.38,30.58,30.58,0,0,1,4.14,1.5,15,15,0,0,0,2,.76c.54.17,1.15.33,1.78.47Z"/><path d="M241.88,224.45a3,3,0,0,0,1-.27,10.47,10.47,0,0,1,5.25-.68,3.82,3.82,0,0,0,2.16-.19c.1-.06.27-.17.19-.37s-.27-.16-.36-.15a14.16,14.16,0,0,1-6.19-.76,16.18,16.18,0,0,1-1.9-.73,28.82,28.82,0,0,0-4.63-1.65l-.18-.05-.09.16c-.19.31.79,2.11,1.58,3.05A3.79,3.79,0,0,0,241.88,224.45Zm3.56-1.46a9.09,9.09,0,0,0-2.79.73,2.39,2.39,0,0,1-2.26-.09,7.48,7.48,0,0,1-2.71-3.38,30.86,30.86,0,0,1,4.13,1.5,15,15,0,0,0,2,.76c.54.17,1.15.33,1.79.47Z"/><path d="M259.78,227.42a.44.44,0,0,0,.16-.06.35.35,0,0,0,.12-.37,3.75,3.75,0,0,0-1-1.56,11,11,0,0,1-2.23-3.75c-.65-1.94-2.75-2.22-4.4-2.12,0,0-2.42.21-2.5.64l0,.19.16.08a5.68,5.68,0,0,1,2.65,2.53,3,3,0,0,0,1.28,1.39c2,1,3.34,1.78,4.25,2.31S259.55,227.44,259.78,227.42Zm-7.58-7.33a5.94,5.94,0,0,1,2.86.31,2.38,2.38,0,0,1,1.36,1.44,11.27,11.27,0,0,0,2.31,3.92,5.1,5.1,0,0,1,.77,1.06c-.23-.11-.59-.32-1-.56-.92-.53-2.31-1.34-4.29-2.32a2.58,2.58,0,0,1-1.07-1.19,6,6,0,0,0-2.33-2.43A10.07,10.07,0,0,1,252.2,220.09Z"/><path d="M272.62,230a.25.25,0,0,0,.15-.06.34.34,0,0,0,.13-.37c-.1-.55-.65-.8-1.35-1.12a4.8,4.8,0,0,1-3-2.93,4,4,0,0,0-2.34-2.71,2.53,2.53,0,0,0-1.67-.09h0a1.2,1.2,0,0,0-.59,1.11c.08,1.2,1.78,2.58,2.9,3.14,2,1,3.34,1.78,4.26,2.31S272.39,230.06,272.62,230Zm-7.69-6.86c.54-.06,2.3,0,3.16,2.54a4.75,4.75,0,0,0,1.34,2.08c-.67-.37-1.46-.79-2.37-1.24s-2.57-1.81-2.62-2.72a.68.68,0,0,1,.34-.64A.4.4,0,0,1,264.93,223.18Z"/><path d="M250.15,223.64h0a.33.33,0,0,0,.27-.27c.16-.53-.22-1-.7-1.63a5,5,0,0,1-1.39-4,4.1,4.1,0,0,0-.89-3.5,2.67,2.67,0,0,0-1.45-.87h0a1.13,1.13,0,0,0-1,.71c-.47,1.1.44,3.13,1.19,4.15,1.33,1.79,2.2,3.15,2.78,4C249.68,223.36,249.88,223.67,250.15,223.64ZM246,213.86c.18,0,2.25.75,1.84,3.79a4.86,4.86,0,0,0,.28,2.48c-.44-.65-1-1.39-1.57-2.22s-1.49-2.81-1.14-3.65A.64.64,0,0,1,246,213.86Z"/><rect class="cls-4" x="169.13" y="215.2" width="309" height="209" transform="matrix(0.32, -0.95, 0.95, 0.32, -83.38, 522.88)"/><path class="cls-5" d="M471.75,207.48,372.38,499l-196.87-67.1,99.36-291.53,196.88,67.1m1.27-.62L274.25,139.11l-100,293.42L373,500.28,473,206.86Z"/><path d="M465.41,210.6,369.27,492.67,181.85,428.79,278,146.72,465.41,210.6m1.27-.62L277.37,145.46l-96.79,284,189.31,64.53,96.79-284Z"/><path d="M377.47,201.76l4.81,24.35-18.69,16.35-23.5-8-4.81-24.35L354,193.75l23.5,8m.87-.76-24.6-8.38-19.55,17.1,5,25.49,24.59,8.38,19.55-17.1-5-25.49Z"/><path d="M372.6,197.48l10.95,22.28-13.82,20.62L345,238.73,334,216.45l13.82-20.62,24.77,1.65m.64-1-25.92-1.73-14.46,21.58,11.46,23.32,25.92,1.73,14.46-21.58-11.46-23.32Z"/><path d="M365,194.08l17.68,17.44-6.27,24-23.93,6.59-17.68-17.44,6.27-24L365,194.08m.29-1.12-25,6.9L333.73,225l18.5,18.25,25-6.9,6.55-25.14L365.33,193Z"/><line class="cls-3" x1="256.35" y1="282.28" x2="372.78" y2="321.96"/><line class="cls-3" x1="246.18" y1="313.67" x2="391.47" y2="363.2"/><line class="cls-3" x1="235.53" y1="344.91" x2="285.23" y2="361.85"/><line class="cls-3" x1="215.14" y1="404.74" x2="264.83" y2="421.68"/><line class="cls-3" x1="309.79" y1="437.01" x2="359.49" y2="453.94"/><path d="M342.08,263.66l.33-.94c.4.13,40.48,13.4,56.21-14.79l.87.49C383.36,277.33,342.5,263.8,342.08,263.66Z"/><path d="M388.05,260.64l-.06,0a.34.34,0,0,1-.25-.31c0-.31.3-.45,1.77-1.1,1.14-.5,2.86-1.26,5.16-2.44a3.88,3.88,0,0,1,2.14-.34,7.71,7.71,0,0,0,4.24-.91h0l.16-.08.13.14c.08.08.21.22-.56,1.55s-2.81,4.28-5.64,3.65a14,14,0,0,0-5.06-.14A4.93,4.93,0,0,1,388.05,260.64Zm12.66-4.41a8,8,0,0,1-3.92.7,3.46,3.46,0,0,0-1.9.29c-2.3,1.18-4,1.95-5.18,2.45-.49.22-.94.41-1.22.56a8.1,8.1,0,0,0,1.54-.09,14.5,14.5,0,0,1,5.23.15C398,260.91,400.06,257.57,400.71,256.23Z"/><path d="M399.14,248.75a.8.8,0,0,1-.51-.38,1,1,0,0,1,.2-.92c.38-.58,1-1.53,6.64-2.81a3.74,3.74,0,0,1,2.5.61,6.74,6.74,0,0,0,4.83.84l.17,0,.1.15c.1.16,0,.3-.09.4s-3.41,4.24-7.16,3.13A21.33,21.33,0,0,0,401,249,8.32,8.32,0,0,1,399.14,248.75Zm7.54-3.53a2,2,0,0,0-1.1-.1c-5.42,1.24-6,2.13-6.34,2.61-.15.23-.18.36-.16.42.11.22,1.07.28,2,.35a22.54,22.54,0,0,1,4.88.75c2.67.79,5.34-1.53,6.3-2.57a7.37,7.37,0,0,1-4.51-1A9.64,9.64,0,0,0,406.68,245.22Z"/><path d="M398.63,248.76a1,1,0,0,1-.22-.12c-.24-.14-2.33-1.5-2-3.27a9.29,9.29,0,0,0,.15-2.25c0-.67,0-1.08.25-1.27a.63.63,0,0,1,.61,0c.34.15.91.42,1.88,3a1.73,1.73,0,0,1-.2,1.32,2.79,2.79,0,0,0-.19,2.2l.06.17-.14.11A.23.23,0,0,1,398.63,248.76Zm-1.45-6.46-.07,0a5.38,5.38,0,0,0,0,.83,9.9,9.9,0,0,1-.16,2.37c-.23,1.06.76,2,1.39,2.51a3.5,3.5,0,0,1,.35-2c.16-.38.29-.68.19-.94-.9-2.43-1.39-2.66-1.62-2.77Z"/><path d="M388,260.6a.34.34,0,0,1-.23-.27,3.6,3.6,0,0,1,.26-1.82,10.83,10.83,0,0,0,.55-4.36c-.19-2,1.67-3.18,3.26-3.78,0,0,2.38-.83,2.64-.48l.11.15-.12.15a5.74,5.74,0,0,0-1.44,3.42,3,3,0,0,1-.64,1.8c-1.45,1.72-2.41,3-3,3.9-.8,1.07-1,1.36-1.3,1.31Zm5.72-10.24a7.93,7.93,0,0,0-4,1.86,2.34,2.34,0,0,0-.68,1.89,11.21,11.21,0,0,1-.57,4.54,5.27,5.27,0,0,0-.28,1.3c.17-.21.42-.56.7-.94.65-.87,1.62-2.19,3.08-3.92a2.55,2.55,0,0,0,.52-1.53A6,6,0,0,1,393.67,250.36Zm.36-.48Z"/><path d="M374.7,269.94a3.28,3.28,0,0,1-.92-.49,11.24,11.24,0,0,0-5.12-1.93,4,4,0,0,1-2.13-.7c-.09-.09-.23-.23-.11-.41s.31-.09.4-.05a15.31,15.31,0,0,0,6.39.74,18.47,18.47,0,0,0,2.08-.26,30,30,0,0,1,5-.5h.19l.06.17c.12.36-1.28,1.87-2.29,2.6A3.89,3.89,0,0,1,374.7,269.94Zm-3.26-2.27a9.07,9.07,0,0,1,2.64,1.38,2.6,2.6,0,0,0,2.3.45,7.45,7.45,0,0,0,3.48-2.65,30.44,30.44,0,0,0-4.49.48,19,19,0,0,1-2.14.27c-.58,0-1.23,0-1.9,0Z"/><path d="M385.35,268a3.26,3.26,0,0,1-.91-.5,11.36,11.36,0,0,0-5.13-1.92,4.12,4.12,0,0,1-2.13-.7c-.08-.09-.23-.24-.11-.41s.31-.09.4-.05a15.14,15.14,0,0,0,6.39.74,16.21,16.21,0,0,0,2.08-.27,31.62,31.62,0,0,1,5-.49h.18l.06.18c.12.35-1.27,1.87-2.28,2.59A3.92,3.92,0,0,1,385.35,268Zm-3.25-2.28a9.63,9.63,0,0,1,2.64,1.39,2.6,2.6,0,0,0,2.29.45,7.53,7.53,0,0,0,3.49-2.65,30.45,30.45,0,0,0-4.5.48,18.78,18.78,0,0,1-2.13.27c-.59,0-1.23,0-1.91,0Z"/><path d="M366.68,266.62a.33.33,0,0,1-.14-.1.34.34,0,0,1,0-.38,3.66,3.66,0,0,1,1.33-1.29,11,11,0,0,0,3.08-3.13c1.09-1.73,3.26-1.5,4.9-1,0,0,2.39.78,2.37,1.22v.19l-.19,0a5.69,5.69,0,0,0-3.22,1.84,3,3,0,0,1-1.6,1c-2.2.48-3.76.93-4.8,1.23S366.91,266.7,366.68,266.62Zm9.28-5.33a6.38,6.38,0,0,0-2.94-.38,2.37,2.37,0,0,0-1.69,1.08,11.21,11.21,0,0,1-3.21,3.26,5.34,5.34,0,0,0-1,.86c.26-.06.68-.18,1.13-.31,1-.3,2.62-.76,4.83-1.24a2.54,2.54,0,0,0,1.35-.9,5.89,5.89,0,0,1,2.88-1.81A10.26,10.26,0,0,0,376,261.29Z"/><path d="M353.2,266.1a.31.31,0,0,1-.15-.1.35.35,0,0,1,0-.39c.21-.51.83-.62,1.6-.76a4.89,4.89,0,0,0,3.68-2.15,4,4,0,0,1,3-2.07,2.7,2.7,0,0,1,1.7.31h0a1.18,1.18,0,0,1,.34,1.22c-.35,1.15-2.37,2.09-3.62,2.37-2.2.47-3.76.93-4.8,1.23S353.43,266.18,353.2,266.1Zm9.28-4.85c-.53-.18-2.31-.56-3.75,1.72a4.71,4.71,0,0,1-1.82,1.71c.76-.2,1.64-.42,2.66-.64,1.18-.26,3-1.15,3.25-2a.68.68,0,0,0-.2-.71Z"/><path d="M377.22,265.24h0a.35.35,0,0,1-.21-.33c0-.55.45-.93,1.08-1.42a4.86,4.86,0,0,0,2.29-3.58,4,4,0,0,1,1.7-3.2,2.68,2.68,0,0,1,1.64-.5h0a1.19,1.19,0,0,1,.86.94c.22,1.18-1.15,2.94-2.14,3.75-1.74,1.43-2.92,2.55-3.71,3.29C377.76,265.08,377.49,265.34,377.22,265.24Zm6.35-8.54c-.19,0-2.43.19-2.71,3.25a4.72,4.72,0,0,1-.84,2.35c.59-.52,1.28-1.12,2.08-1.78s2.13-2.39,2-3.28A.69.69,0,0,0,383.57,256.7Z"/><path d="M342.3,263.74l.32-.95c-.39-.13-38.94-13.67-34-45.54l-1-.13C302.59,249.8,341.9,263.6,342.3,263.74Z"/><path d="M309,233.71l.06,0a.34.34,0,0,0,.38-.1c.19-.24,0-.53-.7-1.93-.56-1.09-1.42-2.72-2.46-5a3.75,3.75,0,0,0-1.43-1.56,7.45,7.45,0,0,1-2.69-3.27h0l-.08-.16-.18,0c-.12,0-.29.05-.51,1.58s-.43,5.09,2.12,6.29a13.13,13.13,0,0,1,3.94,2.93A5,5,0,0,0,309,233.71Zm-7-11.12a7.59,7.59,0,0,0,2.57,2.92,3.32,3.32,0,0,1,1.28,1.37c1.05,2.33,1.91,4,2.48,5.06.24.47.47.89.59,1.18a7.48,7.48,0,0,1-1.12-1,13.62,13.62,0,0,0-4.08-3C301.29,227.94,301.72,224.05,302,222.59Z"/><path d="M307.72,217.59a.78.78,0,0,0,.62,0c.36-.18.4-.68.41-.85.05-.68.13-1.83-3.38-6.22a3.54,3.54,0,0,0-2.28-1,6.32,6.32,0,0,1-4.19-2.24l-.11-.13-.16.06c-.17.07-.17.25-.18.38s.06,5.42,3.59,6.79a20.85,20.85,0,0,1,4.09,2.28A8,8,0,0,0,307.72,217.59Zm-3.63-7.34a1.87,1.87,0,0,1,.9.59c3.4,4.24,3.32,5.3,3.27,5.88,0,.27-.08.4-.13.43-.21.11-1-.42-1.73-.92a20.88,20.88,0,0,0-4.18-2.34c-2.51-1-3.15-4.42-3.26-5.83a6.87,6.87,0,0,0,4,1.93A8.52,8.52,0,0,1,304.09,210.25Z"/><path d="M308.11,217.91l.24,0c.27,0,2.68.2,3.45-1.44a9.59,9.59,0,0,1,1.24-1.87c.42-.53.68-.84.57-1.16a.58.58,0,0,0-.48-.35c-.35-.08-.94-.21-3.27,1.29a1.81,1.81,0,0,0-.63,1.16,2.85,2.85,0,0,1-1.18,1.88l-.15.1,0,.17A.26.26,0,0,0,308.11,217.91Zm5-4.27a.14.14,0,0,1,.07,0c0,.06-.29.39-.5.66a9.44,9.44,0,0,0-1.3,2c-.47,1-1.81,1.17-2.57,1.17a3.61,3.61,0,0,0,.9-1.76c.1-.4.19-.72.42-.87,2.15-1.39,2.66-1.28,2.9-1.22Z"/><path d="M309.14,233.74a.32.32,0,0,0,.34-.08,3.79,3.79,0,0,0,.9-1.61,11,11,0,0,1,2.2-3.79c1.37-1.5.63-3.53-.22-5,0,0-1.31-2.1-1.72-2l-.18,0v.2a5.89,5.89,0,0,1-.95,3.58,3.09,3.09,0,0,0-.6,1.81c.07,2.24,0,3.86,0,4.94,0,1.33,0,1.69.2,1.82Zm1.79-11.58a7.79,7.79,0,0,1,1.91,3.86,2.48,2.48,0,0,1-.61,1.91,11.35,11.35,0,0,0-2.3,3.95,5.41,5.41,0,0,1-.57,1.2c0-.26,0-.69,0-1.17,0-1.08.08-2.71,0-5a2.58,2.58,0,0,1,.53-1.53A6.16,6.16,0,0,0,310.93,222.16Zm0-.6Z"/><path d="M313.64,249.13a3.22,3.22,0,0,0,1,.16,10.44,10.44,0,0,1,5.06,1.55,3.93,3.93,0,0,0,2.05.72c.12,0,.32-.05.33-.26s-.18-.26-.27-.28a14.38,14.38,0,0,1-5.32-3.25,16.42,16.42,0,0,1-1.43-1.46,29.84,29.84,0,0,0-3.54-3.42l-.14-.11-.15.1c-.3.21-.15,2.26.18,3.44A3.8,3.8,0,0,0,313.64,249.13Zm3.85.15a8.56,8.56,0,0,0-2.84-.49,2.41,2.41,0,0,1-2-1,7.53,7.53,0,0,1-1.08-4.2,29.24,29.24,0,0,1,3.15,3.08,17.31,17.31,0,0,0,1.47,1.5c.42.37.91.77,1.43,1.16Z"/><path d="M306.67,241.2a3.21,3.21,0,0,0,1,.16,10.45,10.45,0,0,1,5.07,1.55,3.9,3.9,0,0,0,2,.72c.11,0,.31,0,.33-.26s-.18-.26-.28-.29a14.19,14.19,0,0,1-5.32-3.24,16.31,16.31,0,0,1-1.42-1.46,30.67,30.67,0,0,0-3.54-3.42l-.14-.11-.15.1c-.31.21-.15,2.25.18,3.43A3.76,3.76,0,0,0,306.67,241.2Zm3.85.15a8.63,8.63,0,0,0-2.85-.49,2.44,2.44,0,0,1-2-1,7.51,7.51,0,0,1-1.07-4.2,30.23,30.23,0,0,1,3.15,3.08,17.19,17.19,0,0,0,1.46,1.5c.43.37.92.77,1.44,1.16Z"/><path d="M321.75,251.3a.33.33,0,0,0,.17,0,.34.34,0,0,0,.26-.28,3.68,3.68,0,0,0-.24-1.82,11.11,11.11,0,0,1-.47-4.34c.21-2-1.59-3.16-3.13-3.74,0,0-2.29-.82-2.55-.46l-.11.16.12.15a5.67,5.67,0,0,1,1.36,3.39,3,3,0,0,0,.59,1.79c1.39,1.7,2.31,3,2.92,3.86S321.53,251.23,321.75,251.3Zm-3.87-9.81a6,6,0,0,1,2.47,1.47,2.37,2.37,0,0,1,.64,1.87,11.13,11.13,0,0,0,.49,4.52,5.69,5.69,0,0,1,.26,1.3c-.16-.21-.41-.55-.67-.93-.62-.86-1.55-2.17-2.95-3.88a2.58,2.58,0,0,1-.48-1.53,6,6,0,0,0-1.12-3.18A10.83,10.83,0,0,1,317.88,241.49Z"/><path d="M332.36,259a.22.22,0,0,0,.16,0,.32.32,0,0,0,.26-.28c.15-.54-.25-1-.76-1.58a4.83,4.83,0,0,1-1.52-3.91,4,4,0,0,0-1-3.43A2.49,2.49,0,0,0,328,249h0a1.2,1.2,0,0,0-1,.76c-.42,1.13.55,3.09,1.34,4.06,1.39,1.7,2.31,3,2.93,3.86S332.13,258.92,332.36,259Zm-4.17-9.42c.51.17,2.1.94,1.83,3.62a4.72,4.72,0,0,0,.36,2.44q-.69-.91-1.65-2.1c-.75-.92-1.59-2.71-1.26-3.56a.68.68,0,0,1,.57-.45Z"/><path d="M314.54,243.88h0a.34.34,0,0,0,.36-.14c.36-.41.21-1,0-1.77a5,5,0,0,1,.4-4.23,4.11,4.11,0,0,0,.63-3.56,2.67,2.67,0,0,0-1-1.39h0a1.13,1.13,0,0,0-1.21.23c-.88.81-.9,3-.63,4.27.47,2.18.7,3.78.86,4.84C314.22,243.43,314.28,243.79,314.54,243.88Zm.29-10.61c.14.12,1.74,1.62.11,4.21a4.91,4.91,0,0,0-.77,2.38q-.19-1.16-.51-2.67c-.26-1.17-.2-3.18.47-3.79A.65.65,0,0,1,314.83,233.27Z"/></svg>