<svg xmlns="http://www.w3.org/2000/svg" xmlns:xlink="http://www.w3.org/1999/xlink" viewBox="0 0 347.13 360.96"><defs><style>.cls-1{fill:url(#linear-gradient);}.cls-2{fill:#595966;}.cls-3{fill:url(#linear-gradient-2);}.cls-4{fill:#333;}</style><linearGradient id="linear-gradient" x1="243.04" y1="180.22" x2="62.87" y2="64.24" gradientUnits="userSpaceOnUse"><stop offset="0" stop-color="#8b8bbc"/><stop offset="0.18" stop-color="#9494c0"/><stop offset="0.49" stop-color="#aeaecc"/><stop offset="0.87" stop-color="#d7d7df"/><stop offset="1" stop-color="#e6e6e6"/></linearGradient><linearGradient id="linear-gradient-2" x1="224.4" y1="204.62" x2="384.81" y2="403.5" xlink:href="#linear-gradient"/></defs><g id="Layer_2" data-name="Layer 2"><g id="Layer_1-2" data-name="Layer 1"><path class="cls-1" d="M271.56,236h0s2,5.31,2,5.48c0,10.93-43.32,19.79-96.74,19.79s-96.73-8.86-96.73-19.79c0-.17,1.54-5.53,1.54-5.53l-1-107.7L6.53,73.79l167-70.24,167,70.24-69.5,51Z"/><line class="cls-2" x1="319.55" y1="89.25" x2="319.55" y2="276.7"/><path class="cls-3" d="M335.7,293.77v63.88H303.11V293.77c0-9.74,7.29-17.62,16.3-17.62S335.7,284,335.7,293.77Z"/><path class="cls-4" d="M274.68,117l-7.13,0,.2-40.34C267.08,62.1,229.36,46,176.11,46A234.34,234.34,0,0,0,132,50l-.47.1-1.54-7.53.76-.16a240.71,240.71,0,0,1,45.41-4.16c47.2,0,97.85,13.37,98.77,38.16v.17Z"/><path class="cls-4" d="M84.25,120.37l-7.13,0,.23-43.93c.2-5.5,3.23-13.68,16.55-21.41l.38-.22,3.41,6.77-.4.24c-8.06,4.67-12.6,10-12.82,14.87Z"/><rect class="cls-4" x="317.01" y="89.25" width="5.09" height="187.45"/><path class="cls-4" d="M338.75,361H300.06V293.77c0-11.54,8.68-20.93,19.35-20.93s19.34,9.39,19.34,20.93Zm-32.58-6.61h26.47V293.77c0-7.89-5.94-14.32-13.23-14.32s-13.24,6.43-13.24,14.32Z"/><path class="cls-4" d="M176.85,264.58c-34.51,0-99.78-4.82-99.78-23.09,0-.6,0-.66,1.53-6L77.65,130,0,73,173.57,0,347.13,73l-73,53.59.44,108.77c2,5.32,2,5.38,2,6.14C276.64,259.76,211.37,264.58,176.85,264.58ZM83.22,241.75c.52,1.7,5.85,6.41,25.8,10.49,18.09,3.7,42.18,5.74,67.83,5.74s49.75-2,67.83-5.74c19.6-4,25.09-8.62,25.77-10.39-.35-1-1.06-2.88-1.71-4.59l-.23-.6V236l-.46-112.92,66-48.5L173.57,7.09,13.05,74.59l70.67,51.9,1,110-.14.49C84.05,238.77,83.47,240.82,83.22,241.75Z"/></g></g></svg>