<svg xmlns="http://www.w3.org/2000/svg" viewBox="0 0 1080 6480"><defs><style>.cls-1{fill:#e6e7e7;}</style></defs><g id="Layer_2" data-name="Layer 2"><g id="Formacao"><path class="cls-1" d="M1080,4320V5400H347.93S700,4928,348,4320Z"/></g><g id="experiencia"><path class="cls-1" d="M1080,3240V4320H347.93S3.5,3892.82,0,3240Z"/><path class="cls-1" d="M1080,2160V3240H0s20.42-608.21,240.5-1080Z"/></g><g id="bio"><path class="cls-1" d="M1080,1080V2160H240.5c52.38-112.29,116.08-216.86,193.5-303.65,116.35-130.43,97.31-440.82,16.77-776.35Z"/></g><g id="home"><path class="cls-1" d="M1080,0V1080H450.77C349,656,149.08,191.91,0,0Z"/></g><g id="Contato"><path class="cls-1" d="M1080,5400V6480H450.77C447,6091,9,5918,348,5400Z"/></g></g></svg>