<svg xmlns="http://www.w3.org/2000/svg" viewBox="0 0 50.89 48.61"><defs><style>.cls-1{fill:#e6e7e7;stroke:#e6e7e7;stroke-miterlimit:10;}</style></defs><g id="Layer_2" data-name="Layer 2"><g id="home"><path class="cls-1" d="M24.62,48.27.34,24a1.18,1.18,0,0,1,0-1.65h0a1.18,1.18,0,0,1,1.65,0L24.62,45a1.16,1.16,0,0,0,1.65,0L48.9,22.34a1.18,1.18,0,0,1,1.65,0h0a1.16,1.16,0,0,1,0,1.65L26.27,48.27A1.16,1.16,0,0,1,24.62,48.27Z"/><path class="cls-1" d="M24.62,37.27.34,13a1.18,1.18,0,0,1,0-1.65h0a1.18,1.18,0,0,1,1.65,0L24.62,34a1.16,1.16,0,0,0,1.65,0L48.9,11.34a1.18,1.18,0,0,1,1.65,0h0a1.16,1.16,0,0,1,0,1.65L26.27,37.27A1.16,1.16,0,0,1,24.62,37.27Z"/><path class="cls-1" d="M24.62,26.27.34,2A1.18,1.18,0,0,1,.34.34h0A1.18,1.18,0,0,1,2,.34L24.62,23a1.16,1.16,0,0,0,1.65,0L48.9.34a1.18,1.18,0,0,1,1.65,0h0a1.16,1.16,0,0,1,0,1.65L26.27,26.27A1.16,1.16,0,0,1,24.62,26.27Z"/></g></g></svg>