<svg xmlns="http://www.w3.org/2000/svg" viewBox="0 0 478.66 440.86"><defs><style>.cls-1{fill:none;stroke:#000;stroke-miterlimit:10;stroke-width:5px;}</style></defs><g id="Layer_2" data-name="Layer 2"><g id="Layer_1-2" data-name="Layer 1"><path class="cls-1" d="M476.16,38.28A35.51,35.51,0,0,0,429.88,4.2l-298.41,95A77.46,77.46,0,0,0,77.5,173V342a54.59,54.59,0,0,0-24-5.67,51,51,0,0,0,0,102c28.17,0,54-22.83,54-51V199.57a77.47,77.47,0,0,1,54.62-74l236.4-73a35.5,35.5,0,0,1,46,33.92V219a100,100,0,1,0,30,71.41C474.5,285.26,476.16,38.28,476.16,38.28Z"/></g></g></svg>