<svg xmlns="http://www.w3.org/2000/svg" viewBox="0 0 375.22 355"><defs><style>.cls-1,.cls-2,.cls-3{fill:none;stroke:#000;stroke-miterlimit:10;}.cls-2{stroke-width:5px;}.cls-3{stroke-width:2px;}</style></defs><g id="Layer_2" data-name="Layer 2"><g id="Layer_1-2" data-name="Layer 1"><path class="cls-1" d="M224.37,2.93a29,29,0,0,0-9.93,0,28.82,28.82,0,0,1,5,1.32"/><path class="cls-1" d="M150.53,352.07a29,29,0,0,0,9.93,0"/><path class="cls-1" d="M165.42,350.75a28.82,28.82,0,0,1-5,1.32,29,29,0,0,0,9.92,0"/><path class="cls-1" d="M234.3,2.93a29,29,0,0,0-9.93,0,28.82,28.82,0,0,1,5,1.32"/><path class="cls-1" d="M224.37,6.61a28.93,28.93,0,0,0-5-2.36"/><path class="cls-1" d="M360.82,112l-101-101A29.05,29.05,0,0,0,234.3,2.93,28.9,28.9,0,0,1,249.92,11L354.68,115.77a42.12,42.12,0,0,1,0,59.55L186,344a28.89,28.89,0,0,1-15.63,8.08A29.06,29.06,0,0,0,195.94,344L360.82,179.11A47.46,47.46,0,0,0,360.82,112Z"/><path class="cls-2" d="M166.15,344,344,166.13A29.11,29.11,0,0,0,344,125L230.06,11a28.92,28.92,0,0,0-5.69-4.4l-9.93-3.68A29,29,0,0,0,188.89,11L11,188.87A29.11,29.11,0,0,0,11,230L125,344a29,29,0,0,0,24.2,8.28,8.84,8.84,0,0,0,2.6-.77C155.23,349.89,164.73,345.42,166.15,344Z"/><path class="cls-1" d="M165.42,350.75A29,29,0,0,0,176.08,344L350,170.06a34.67,34.67,0,0,0,0-49L240,11a29,29,0,0,0-10.66-6.76"/><line class="cls-1" x1="161.97" y1="98.03" x2="256.99" y2="193.05"/><line class="cls-1" x1="115.74" y1="116.34" x2="238.68" y2="239.28"/><line class="cls-1" x1="175.39" y1="249.21" x2="105.81" y2="179.63"/><line class="cls-1" x1="82.39" y1="246.03" x2="41.2" y2="203.91"/><line class="cls-1" x1="150.65" y1="314.28" x2="109.46" y2="272.16"/><rect class="cls-3" x="232.88" y="88.28" width="35.1" height="35.1"/><rect class="cls-3" x="232.88" y="88.28" width="35.1" height="35.1" transform="translate(148.18 -146.08) rotate(45)"/><rect class="cls-3" x="232.88" y="88.28" width="35.1" height="35.1" transform="translate(57.96 -86.19) rotate(22.02)"/></g></g></svg>