<svg xmlns="http://www.w3.org/2000/svg" viewBox="0 0 506.27 460.25"><defs><style>.cls-1,.cls-2,.cls-3,.cls-4{fill:none;stroke:#000;stroke-miterlimit:10;}.cls-2{stroke-width:5px;}.cls-3{stroke-width:10px;}.cls-4{stroke-width:2px;}</style></defs><g id="Layer_2" data-name="Layer 2"><g id="Layer_1-2" data-name="Layer 1"><path class="cls-1" d="M254.26,411.25a249.57,249.57,0,0,1,200.63-45.1c3.12.64,6.21,1.35,9.29,2.11"/><path class="cls-1" d="M254.26,417.25a249.57,249.57,0,0,1,200.63-45.1q7.17,1.49,14.18,3.37"/><path class="cls-1" d="M254.26,423.25a249.57,249.57,0,0,1,200.63-45.1q9.74,2,19.16,4.77"/><path class="cls-1" d="M254.26,429.25a249.23,249.23,0,0,1,224.86-38.8l.89.29"/><path class="cls-1" d="M254.26,435.25a249.57,249.57,0,0,1,200.63-45.1,245.09,245.09,0,0,1,29.41,8"/><path class="cls-1" d="M254.26,441.25A249,249,0,0,1,489.6,406"/><path class="cls-1" d="M495.83,414.78a246.63,246.63,0,0,0-41.94-12.63,248.61,248.61,0,0,0-200.64,45.1"/><line class="cls-2" x1="254.01" y1="55" x2="254.01" y2="453"/><path class="cls-2" d="M254.25,453.25A249.07,249.07,0,0,1,502,422.92"/><polyline class="cls-1" points="495.84 21.6 495.84 412.25 495.01 415"/><polyline class="cls-1" points="487.92 19 487.92 401.32 487.92 403.5"/><polyline class="cls-1" points="480.01 391.77 480.01 390.74 480.01 16.66"/><polyline class="cls-1" points="472.1 14.57 472.1 377.48 472.1 379.5"/><polyline class="cls-1" points="464.18 12.44 464.18 366.56 464.18 368.5"/><line class="cls-1" x1="464.01" y1="368" x2="499.01" y2="420"/><path class="cls-1" d="M42.09,368.26c3.08-.76,6.17-1.47,9.29-2.11A248.57,248.57,0,0,1,252,411.25"/><path class="cls-1" d="M37.2,375.52q7-1.89,14.18-3.37A248.57,248.57,0,0,1,252,417.25"/><path class="cls-1" d="M32.22,382.92q9.44-2.76,19.16-4.77A248.57,248.57,0,0,1,252,423.25"/><path class="cls-1" d="M26.26,390.74l.89-.29A248.68,248.68,0,0,1,252,429.25"/><path class="cls-1" d="M22,398.15a245.09,245.09,0,0,1,29.41-8A248.57,248.57,0,0,1,252,435.25"/><path class="cls-1" d="M16.67,406a246.09,246.09,0,0,1,34.71-9.87A248.57,248.57,0,0,1,252,441.25"/><path class="cls-1" d="M10.44,414.78a246.63,246.63,0,0,1,41.94-12.63A248.57,248.57,0,0,1,253,447.25"/><line class="cls-2" x1="252.26" y1="55" x2="252.26" y2="453"/><path class="cls-2" d="M252,453.25A249.09,249.09,0,0,0,4.25,422.92"/><path class="cls-3" d="M252.76,455.25A249.07,249.07,0,0,0,5,424.92v-400A248.72,248.72,0,0,1,252.76,55.25h.75A249.07,249.07,0,0,1,501.27,24.92v400a248.72,248.72,0,0,0-247.76,30.33Z"/><polyline class="cls-1" points="11.26 415 10.43 412.25 10.43 21.6"/><polyline class="cls-1" points="18.35 403.5 18.35 401.32 18.35 19"/><polyline class="cls-1" points="26.26 16.66 26.26 390.74 26.26 391.77"/><polyline class="cls-1" points="34.17 379.5 34.17 377.48 34.17 14.57"/><polyline class="cls-1" points="42.09 368.5 42.09 366.56 42.09 12.44"/><line class="cls-1" x1="42.26" y1="368" x2="7.26" y2="420"/><path class="cls-4" d="M54,55c95.5-25.5,180.5,30.5,180.5,30.5"/><path class="cls-4" d="M54,114c95.5-25.5,180.5,30.5,180.5,30.5"/><path class="cls-4" d="M54,173c95.5-25.5,180.5,30.5,180.5,30.5"/><path class="cls-4" d="M54,232c88.5-20.5,143.5,11.5,143.5,11.5"/><path class="cls-4" d="M54,291c95.5-25.5,180.5,30.5,180.5,30.5"/><path class="cls-4" d="M444.51,55C349,29.5,264,85.5,264,85.5"/><path class="cls-4" d="M444.51,114C349,88.5,264,144.5,264,144.5"/><path class="cls-4" d="M444.51,173C349,147.5,264,203.5,264,203.5"/><path class="cls-4" d="M444.51,232C356,211.5,301,243.5,301,243.5"/><path class="cls-4" d="M444.51,291C349,265.5,264,321.5,264,321.5"/></g></g></svg>