<svg xmlns="http://www.w3.org/2000/svg" viewBox="0 0 478.66 440.86"><defs><style>.cls-1,.cls-2,.cls-3,.cls-4{fill:none;}.cls-1,.cls-2,.cls-3,.cls-4,.cls-5{stroke:#000;stroke-miterlimit:10;}.cls-1{stroke-width:3px;}.cls-2,.cls-3,.cls-5{stroke-width:5px;}.cls-2{fill-rule:evenodd;}.cls-5{fill:#fff;}</style></defs><g id="Layer_2" data-name="Layer 2"><g id="Layer_1-2" data-name="Layer 1"><path d="M189.46,249a23,23,0,1,1-16.26,6.74A22.86,22.86,0,0,1,189.46,249m0-5a28,28,0,1,0,19.8,8.2,27.94,27.94,0,0,0-19.8-8.2Z"/><line class="cls-1" x1="120.16" y1="302.4" x2="156.23" y2="338.46"/><path class="cls-2" d="M199,242.65l42-42c-31.26-22.47-60.94-33.81-89.05-5.7-1.49,1.49-2.91,3-4.26,4.6a98.9,98.9,0,0,1-42.35,28.67A98.61,98.61,0,0,0,67.45,252.6c-37.08,38.25-26.08,88.75,11.06,126.94,38.57,39.66,91.05,50.95,130,11.95a98.53,98.53,0,0,0,23.65-37.82,96.65,96.65,0,0,1,28.6-41.6q2.22-1.9,4.32-4c28.36-28.36,16.83-58.57-6.29-89.88l-42.15,42.15Z"/><line class="cls-3" x1="258.83" y1="218.18" x2="386.39" y2="90.62"/><line class="cls-3" x1="368.71" y1="72.94" x2="241.03" y2="200.62"/><polygon class="cls-2" points="363.41 67.64 368.71 72.94 377.2 64.46 394.88 82.14 386.39 90.62 391.69 95.92 434.12 53.5 405.83 25.21 363.41 67.64"/><circle class="cls-1" cx="386.74" cy="61.98" r="4"/><circle class="cls-1" cx="403.71" cy="45.01" r="4"/><circle class="cls-1" cx="398.06" cy="73.3" r="4"/><circle class="cls-1" cx="415.03" cy="56.33" r="4"/><line class="cls-4" x1="133.26" y1="315.18" x2="383.58" y2="64.87"/><line class="cls-4" x1="136.23" y1="318.14" x2="404.93" y2="49.44"/><line class="cls-4" x1="142.32" y1="324.24" x2="412.44" y2="54.13"/><line class="cls-4" x1="145.28" y1="327.2" x2="395.6" y2="76.89"/><path class="cls-5" d="M476.16,38.28A35.51,35.51,0,0,0,429.88,4.2l-298.41,95A77.46,77.46,0,0,0,77.5,173V342a54.59,54.59,0,0,0-24-5.67,51,51,0,0,0,0,102c28.17,0,54-22.83,54-51V199.57a77.47,77.47,0,0,1,54.62-74l236.4-73a35.5,35.5,0,0,1,46,33.92V219a100,100,0,1,0,30,71.41C474.5,285.26,476.16,38.28,476.16,38.28Z"/></g></g></svg>