<svg xmlns="http://www.w3.org/2000/svg" viewBox="0 0 483.66 445.86"><defs><style>.cls-1{fill:none;stroke:#000;stroke-miterlimit:10;stroke-width:10px;}</style></defs><g id="Layer_2" data-name="Layer 2"><g id="Layer_1-2" data-name="Layer 1"><path class="cls-1" d="M478.66,40.78A35.51,35.51,0,0,0,432.38,6.7L134,101.69a77.46,77.46,0,0,0-54,73.82v169a54.59,54.59,0,0,0-24-5.67,51,51,0,0,0,0,102c28.17,0,54-22.83,54-51V202.07a77.47,77.47,0,0,1,54.62-74l236.4-73A35.5,35.5,0,0,1,447,89V221.45a100,100,0,1,0,30,71.41C477,287.76,478.66,40.78,478.66,40.78Z"/></g></g></svg>