<svg xmlns="http://www.w3.org/2000/svg" viewBox="0 0 525.5 482.26"><defs><style>.cls-1,.cls-2,.cls-3{fill:none;stroke:#000;stroke-miterlimit:10;}.cls-1{stroke-width:10px;}.cls-2{stroke-width:5px;}.cls-3{stroke-width:2px;}</style></defs><g id="Layer_2" data-name="Layer 2"><g id="Layer_1-2" data-name="Layer 1"><path class="cls-1" d="M119.88,244.92C61.8,259.78,20.19,284,8.4,312.28A42.47,42.47,0,0,0,5,328.76c0,14.76,8.05,28.78,22.48,41.37h0c13.94,12.16,33.84,23,58.2,31.95s53.53,16,85.56,20.54l1.22.17.53.07,1.11.16c9.33,1.27,18.92,2.31,28.71,3.12,15.93,1.34,32.43,2.06,49.33,2.1H254q9.15,0,18.14-.26l1.25,0h0c36.64-1.13,71.06-5.42,101.54-12.21h0a373.28,373.28,0,0,0,47-13.52c27-9.86,48.55-22.06,62.63-35.8h0C496.45,354.8,503,342.09,503,328.76a42.61,42.61,0,0,0-3.87-17.55c-5.51-12.4-16.78-24-32.65-34.36"/><path class="cls-1" d="M303,473.34a.4.4,0,0,1-.15,0,274.1,274.1,0,0,1-29.11,3.28c-1.13.08-2.27.15-3.41.2-1.41.07-2.82.14-4.23.19s-2.55.09-3.84.12c-1,0-2,0-3,.06l-1.56,0-3.2,0-3.2,0-1.56,0c-1,0-2,0-3-.06q-1.93,0-3.84-.12c-1.41-.05-2.82-.12-4.23-.19-1.14-.05-2.28-.12-3.41-.2a274.1,274.1,0,0,1-29.11-3.28.4.4,0,0,1-.15,0"/><path class="cls-1" d="M134,415.9c.07-.12.15-.24.23-.36,10.24-16.08,40.22-29,79.06-34.48"/><path class="cls-1" d="M375,415.9l-.09-.15h0c-.39-.64-.83-1.28-1.29-1.91-9.17-12.51-30.39-23-58.31-29.23"/><path class="cls-1" d="M484.56,366.41h0c-52,64.82-130.36,107.22-218.6,110.61q-3.33.13-6.68.18l-1.56,0-3.2,0-3.2,0-1.56,0q-3.35,0-6.68-.18l-4.05-.18c-1.24-.06-2.48-.14-3.71-.21l-.26,0c-83.27-5.46-157.15-45.7-207.55-106.49h0"/><path class="cls-2" d="M447,300.49h0c12.62,9.12,21.15,19.22,24.67,29.93a35.42,35.42,0,0,1,1.8,11.09c0,19.88-17.19,38.2-46.11,52.83h0c-15,7.59-33.17,14.19-53.73,19.5-29.24,7.55-63.32,12.49-100,14h0l-1.4.05q-9.54.36-19.32.4H250.5c-16.36,0-32.32-.69-47.68-2-9.42-.79-18.63-1.83-27.56-3.09l-.54-.07-1.72-.24-.53-.07-1.22-.17c-13-1.93-25.38-4.31-37.06-7.09a298.12,298.12,0,0,1-50.85-16.62h0c-34.74-15.29-55.83-35.4-55.83-57.41a36,36,0,0,1,2.84-13.87c15.05-36.43,88.4-65.27,181.63-71.59l.85-.06"/><path class="cls-2" d="M313.81,258.31c-9.67-1.12-19.62-2-29.79-2.58"/><path class="cls-2" d="M422.07,286.09h0c-2.9-1.35-5.89-2.67-9-4"/><line class="cls-3" x1="30.34" y1="327.64" x2="8.4" y2="312.28"/><line class="cls-3" x1="499.13" y1="311.21" x2="471.7" y2="330.42"/><line class="cls-3" x1="85.69" y1="402.09" x2="30.5" y2="327.76"/><polyline class="cls-3" points="421.91 402.23 427.38 394.34 427.39 394.34 471.5 330.76"/><path class="cls-1" d="M271.68,429.36c44.11-35.61,75.62-88.16,94.53-126.67"/><path class="cls-1" d="M285,310.08a485.24,485.24,0,0,0,29-50.76"/><path class="cls-2" d="M314.5,243.76s52-4,42-49"/><path class="cls-2" d="M389.11,168.61c27.47,18.31,67.19-26.45,39.7-73.07"/><path class="cls-2" d="M418.44,276.4c-30.62,8.63-44-58.88-8.87-65.49"/><path class="cls-1" d="M482.56,200.73A51.47,51.47,0,0,1,486,207a13,13,0,0,1,10.15,23.25,13,13,0,0,1-5.71,23.34,13,13,0,0,1-20.71,14.72,49,49,0,0,1-4.22,2.73,23.08,23.08,0,0,1,1,5.8c0,.3,0,.61,0,.91A23,23,0,0,1,447,300.49h0a22.7,22.7,0,0,1-3.52.27,23,23,0,0,1-21.43-14.67h0a22.8,22.8,0,0,1-1.56-8.33c0-.39-2.85,1.49-7.44,4.37-11.44,7.2-33.69,20.63-49.56,20.63a50,50,0,0,1-49.57-43.44c-.05-.34-.09-.67-.12-1a48.39,48.39,0,0,1-.31-5.55,50.39,50.39,0,0,1,.87-9.26,49.5,49.5,0,0,1-17.32-7.64c-3.71,7.12-8.12,14.33-13,19.87a39.17,39.17,0,0,1-6.68,6.15A50,50,0,0,1,212.82,256c-.35-.35-.69-.71-1-1.07h0a49.27,49.27,0,0,1-4.13-5.11,50.52,50.52,0,0,1-4.62-8.07,50.05,50.05,0,0,1-33.11,1.69,31,31,0,0,1-50.06,1.5q-.45-.57-.87-1.17a31,31,0,0,1,15.08-47.1A50.38,50.38,0,0,1,138.94,174a15,15,0,1,1,19.56-21.77L147,135.94a23,23,0,0,1,5.56-32l.25-.17a39,39,0,0,1,45.91-62.85,39,39,0,0,1,77.86,2.22,39,39,0,0,1,39.3,66.82,50.27,50.27,0,0,1,6.42,3.16,13.16,13.16,0,0,1,1.91-1.65,12.94,12.94,0,0,1,11-1.88,22.92,22.92,0,0,1,17.23-7.78h.3a39,39,0,0,1,73.73-25,39,39,0,0,1,62.37,46.66,39,39,0,0,1-6.34,77.26Z"/><path class="cls-1" d="M279.52,260.27c2.33,14.7,4.39,31.66,5.45,49.81a377.8,377.8,0,0,1-2,69.49,251.65,251.65,0,0,1-10.79,48.28.88.88,0,0,1-.05.15c-.15.46-.3.91-.46,1.36"/><path class="cls-1" d="M202.82,426.27a.24.24,0,0,1,0-.12,24.71,24.71,0,0,1,1.32-8.36q.36-1.05.69-2.1a230.94,230.94,0,0,0,6.77-25.75q.9-4.43,1.65-8.88c7.47-44.17,4.06-90-1.28-125-.05-.38-.11-.76-.17-1.13h0"/><path class="cls-2" d="M203.31,241.87s40.2-33.22,6.12-64.25"/><path class="cls-2" d="M221,137.46c33-.84,39.69-60.31-9.62-82.59"/><path class="cls-2" d="M307.07,208.69c-20.05,24.69-69.84-22.82-45-48.43"/></g></g></svg>