<svg xmlns="http://www.w3.org/2000/svg" viewBox="0 0 393.48 393.46"><defs><style>.cls-1,.cls-2{fill:none;stroke:#000;stroke-miterlimit:10;}.cls-1{stroke-width:5px;}.cls-2{stroke-width:2px;}</style></defs><g id="Layer_2" data-name="Layer 2"><g id="Layer_1-2" data-name="Layer 1"><path class="cls-1" d="M208.11,49a146.63,146.63,0,0,1,85.56,35.67l24.82-24.82a11.38,11.38,0,0,1,8-3.32h0a11.28,11.28,0,0,1,8,3.37A192.88,192.88,0,0,1,391,196.73a11.35,11.35,0,0,1-11.35,11.35H344.5a146.74,146.74,0,0,1-35.68,85.57l24.82,24.84a11.35,11.35,0,0,1,0,16.08A193,193,0,0,1,197.23,391h0a11.37,11.37,0,0,1-11.36-11.36V344.52a146.82,146.82,0,0,1-85-34.88L75.9,334.55a11.34,11.34,0,0,1-16,0A192.89,192.89,0,0,1,2.5,196.73a11.35,11.35,0,0,1,11.35-11.35H49a146.89,146.89,0,0,1,34.81-84.6L59,75.92a11.36,11.36,0,0,1,0-16A192.79,192.79,0,0,1,196.75,2.5a11.36,11.36,0,0,1,11.36,11.35Z"/><path class="cls-2" d="M260,185.38H367.91A170,170,0,0,0,326.22,84.23l-24.28,24.28-53,53a11.35,11.35,0,1,1-16-16.05l44.64-44.65a124.23,124.23,0,0,0-69.46-29v70.47a11.36,11.36,0,0,1-22.71,0V25.57A170,170,0,0,0,83.25,68.11L107.57,92.4"/><path class="cls-2" d="M92.43,285.91l0,0L144.34,234a11.35,11.35,0,0,1,16.08,16l-43.49,43.51a124.18,124.18,0,0,0,68.67,28.21l.25-13.92a11.36,11.36,0,0,1,22.71.2v59.86a170.1,170.1,0,0,0,100.69-41.64L285,301.94a11.35,11.35,0,0,1,0-16.08,124.46,124.46,0,0,0,36.68-77.78H259.27a11.35,11.35,0,1,1,0-22.7"/><path class="cls-2" d="M107.57,92.4l54.21,54.21a11.36,11.36,0,0,1-16.05,16.08L99.94,116.93a124.5,124.5,0,0,0-28.65,79.8,11.36,11.36,0,0,1-11.36,11.35H25.57A170.07,170.07,0,0,0,68.11,310.23l24.32-24.32L144.29,234"/></g></g></svg>