<svg xmlns="http://www.w3.org/2000/svg" viewBox="0 0 589.76 589.73"><defs><style>.cls-1,.cls-2{fill:none;stroke:#000;stroke-miterlimit:10;}.cls-1{stroke-width:10px;}.cls-2{stroke-width:2px;}</style></defs><g id="Layer_2" data-name="Layer 2"><g id="Layer_1-2" data-name="Layer 1"><path class="cls-1" d="M311.84,74.37a218.89,218.89,0,0,1,127.7,53.25l37-37.05a16.91,16.91,0,0,1,12-4.94h0a16.85,16.85,0,0,1,12,5,287.9,287.9,0,0,1,84.18,204.23,17,17,0,0,1-16.94,16.94H515.39a218.9,218.9,0,0,1-53.24,127.7l37,37.08a16.92,16.92,0,0,1-.07,24,288,288,0,0,1-203.51,84.15h0a17,17,0,0,1-16.95-16.94V515.42a219.14,219.14,0,0,1-126.92-52l-37.18,37.18a16.93,16.93,0,0,1-23.89,0A287.91,287.91,0,0,1,5,294.87a17,17,0,0,1,17-16.95H74.41a219.19,219.19,0,0,1,52-126.24L89.25,114.57a17,17,0,0,1-.07-23.93A287.75,287.75,0,0,1,294.9,5a17,17,0,0,1,16.94,17Z"/><path class="cls-2" d="M139.21,428l0,0,77.44-77.47a16.94,16.94,0,1,1,24,23.92l-64.9,64.94A185.39,185.39,0,0,0,278.26,481.4l.37-20.78a16.95,16.95,0,0,1,33.89.31v89.33a253.78,253.78,0,0,0,150.27-62.15L426.6,451.88a16.92,16.92,0,0,1,.07-24A185.82,185.82,0,0,0,481.4,311.81H383.72a16.95,16.95,0,0,1,0-33.89H550.33a253.7,253.7,0,0,0-62.22-151L451.88,163.2l-80.53,80.53a16.94,16.94,0,0,1-24-24l68.13-68.13a185.38,185.38,0,0,0-103.68-43.27v94.71a16.95,16.95,0,1,1-33.89,0V39.43a253.67,253.67,0,0,0-152.44,63.48l36.3,36.26"/><path class="cls-2" d="M161.81,139.17l78.66,78.66a17,17,0,0,1-24,24l-66.09-66a185.79,185.79,0,0,0-42.77,119.1,17,17,0,0,1-16.94,16.94H39.43a253.82,253.82,0,0,0,63.48,152.44l36.3-36.3,77.4-77.4"/></g></g></svg>