<svg xmlns="http://www.w3.org/2000/svg" viewBox="0 0 409.89 295.62"><defs><style>.cls-1,.cls-2,.cls-3{fill:none;stroke:#000;stroke-miterlimit:10;}.cls-1{stroke-width:4px;}.cls-2{stroke-width:5px;}.cls-3{stroke-width:2px;}</style></defs><g id="Layer_2" data-name="Layer 2"><g id="Layer_1-2" data-name="Layer 1"><line class="cls-1" x1="380.91" y1="92.12" x2="380.91" y2="251.62"/><circle class="cls-2" cx="380.91" cy="270.12" r="19"/><path class="cls-2" d="M398.64,60.32,222.87,5.25a60,60,0,0,0-35.93,0L11.26,60.3a12.49,12.49,0,0,0-1.4,23.3L189,164.23a39.93,39.93,0,0,0,32.84,0L400.05,83.62A12.49,12.49,0,0,0,398.64,60.32Z"/><path class="cls-2" d="M305.41,242.45V127L221,164.88a39.33,39.33,0,0,1-32.25,0l-83.37-37.42V243.78a125,125,0,0,0,200-1.33Z"/><line class="cls-3" x1="132.41" y1="138.62" x2="132.41" y2="206.12"/><line class="cls-3" x1="278.41" y1="138.62" x2="278.41" y2="206.12"/><line class="cls-3" x1="164.41" y1="175.12" x2="164.41" y2="288.12"/><line class="cls-3" x1="246.41" y1="175.62" x2="246.41" y2="288.62"/><line class="cls-3" x1="17.41" y1="72.62" x2="395.41" y2="72.62"/></g></g></svg>