<svg xmlns="http://www.w3.org/2000/svg" viewBox="0 0 540.92 391.08"><defs><style>.cls-1,.cls-2{fill:none;stroke:#000;stroke-miterlimit:10;}.cls-1{stroke-width:10px;}.cls-2{stroke-width:5px;}</style></defs><g id="Layer_2" data-name="Layer 2"><g id="Layer_1-2" data-name="Layer 1"><line class="cls-1" x1="501.19" y1="122.52" x2="501.19" y2="331.66"/><circle class="cls-1" cx="501.19" cy="355.92" r="24.91"/><path class="cls-1" d="M524.44,80.82,294,8.6a78.86,78.86,0,0,0-47.11,0L16.48,80.79C2.11,85.29.92,105.17,14.66,111.35L249.53,217.07a52.36,52.36,0,0,0,43.06,0l233.7-105.66C540,105.17,538.8,85.32,524.44,80.82Z"/><path class="cls-1" d="M402.19,319.64V168.26L291.55,217.93a51.67,51.67,0,0,1-42.28,0L139.94,168.85V321.38a163.9,163.9,0,0,0,262.25-1.74Z"/><line class="cls-2" x1="175.34" y1="183.49" x2="175.34" y2="272"/><line class="cls-2" x1="366.79" y1="183.49" x2="366.79" y2="272"/><line class="cls-2" x1="217.3" y1="231.35" x2="217.3" y2="379.52"/><line class="cls-2" x1="324.83" y1="232.01" x2="324.83" y2="380.18"/><line class="cls-2" x1="24.55" y1="96.95" x2="520.21" y2="96.95"/></g></g></svg>